<svg xmlns="http://www.w3.org/2000/svg" viewBox="0 0 32 32" width="32" height="32">
  <defs>
    <linearGradient id="gradient" x1="0%" y1="0%" x2="100%" y2="100%">
      <stop offset="0%" style="stop-color:#667eea;stop-opacity:1" />
      <stop offset="100%" style="stop-color:#764ba2;stop-opacity:1" />
    </linearGradient>
  </defs>
  <rect width="32" height="32" rx="6" fill="url(#gradient)"/>
  <path d="M8 10h12c1.1 0 2 .9 2 2v6c0 1.1-.9 2-2 2H8c-1.1 0-2-.9-2-2v-6c0-1.1.9-2 2-2z" fill="white" opacity="0.9"/>
  <path d="M6 8h16c1.1 0 2 .9 2 2v8c0 1.1-.9 2-2 2H6c-1.1 0-2-.9-2-2v-8c0-1.1.9-2 2-2z" fill="white"/>
  <path d="M22 12h2c.6 0 1 .4 1 1s-.4 1-1 1h-2v-2z" fill="white"/>
  <circle cx="10" cy="14" r="1.5" fill="#667eea"/>
  <circle cx="14" cy="14" r="1.5" fill="#667eea"/>
  <path d="M12 16c.6 0 1-.4 1-1s-.4-1-1-1-1 .4-1 1 .4 1 1 1z" fill="#667eea"/>
</svg>
